<?xml version="1.0" standalone="no" ?>
<!DOCTYPE svg PUBLIC "-//W3C//DTD SVG 1.1//EN" "http://www.w3.org/Graphics/SVG/1.1/DTD/svg11.dtd">
<svg width="366.00000" height="100.00000" version="1.1" xmlns="http://www.w3.org/2000/svg">
	<g fill="#000" stroke="none">
		<rect x="15.00000" y="0.00000" width="6.00000" height="100.00000" />
		<rect x="24.00000" y="0.00000" width="3.00000" height="100.00000" />
		<rect x="33.00000" y="0.00000" width="9.00000" height="100.00000" />
		<rect x="48.00000" y="0.00000" width="3.00000" height="100.00000" />
		<rect x="54.00000" y="0.00000" width="6.00000" height="100.00000" />
		<rect x="66.00000" y="0.00000" width="9.00000" height="100.00000" />
		<rect x="81.00000" y="0.00000" width="3.00000" height="100.00000" />
		<rect x="93.00000" y="0.00000" width="3.00000" height="100.00000" />
		<rect x="99.00000" y="0.00000" width="6.00000" height="100.00000" />
		<rect x="114.00000" y="0.00000" width="3.00000" height="100.00000" />
		<rect x="120.00000" y="0.00000" width="12.00000" height="100.00000" />
		<rect x="135.00000" y="0.00000" width="9.00000" height="100.00000" />
		<rect x="147.00000" y="0.00000" width="3.00000" height="100.00000" />
		<rect x="153.00000" y="0.00000" width="3.00000" height="100.00000" />
		<rect x="165.00000" y="0.00000" width="6.00000" height="100.00000" />
		<rect x="180.00000" y="0.00000" width="3.00000" height="100.00000" />
		<rect x="192.00000" y="0.00000" width="3.00000" height="100.00000" />
		<rect x="198.00000" y="0.00000" width="6.00000" height="100.00000" />
		<rect x="213.00000" y="0.00000" width="3.00000" height="100.00000" />
		<rect x="225.00000" y="0.00000" width="3.00000" height="100.00000" />
		<rect x="237.00000" y="0.00000" width="6.00000" height="100.00000" />
		<rect x="246.00000" y="0.00000" width="3.00000" height="100.00000" />
		<rect x="252.00000" y="0.00000" width="6.00000" height="100.00000" />
		<rect x="267.00000" y="0.00000" width="3.00000" height="100.00000" />
		<rect x="279.00000" y="0.00000" width="3.00000" height="100.00000" />
		<rect x="288.00000" y="0.00000" width="6.00000" height="100.00000" />
		<rect x="297.00000" y="0.00000" width="9.00000" height="100.00000" />
		<rect x="312.00000" y="0.00000" width="6.00000" height="100.00000" />
		<rect x="327.00000" y="0.00000" width="9.00000" height="100.00000" />
		<rect x="339.00000" y="0.00000" width="3.00000" height="100.00000" />
		<rect x="345.00000" y="0.00000" width="6.00000" height="100.00000" />
	</g>
</svg>
