<?xml version="1.0" standalone="no" ?>
<!DOCTYPE svg PUBLIC "-//W3C//DTD SVG 1.1//EN" "http://www.w3.org/Graphics/SVG/1.1/DTD/svg11.dtd">
<svg width="399.00000" height="132.00000" version="1.1" xmlns="http://www.w3.org/2000/svg">
	<g fill="#000" stroke="none">
		<rect x="15.00000" y="16.00000" width="6.00000" height="100.00000" />
		<rect x="24.00000" y="16.00000" width="3.00000" height="100.00000" />
		<rect x="39.00000" y="16.00000" width="3.00000" height="100.00000" />
		<rect x="48.00000" y="16.00000" width="3.00000" height="100.00000" />
		<rect x="57.00000" y="16.00000" width="9.00000" height="100.00000" />
		<rect x="72.00000" y="16.00000" width="6.00000" height="100.00000" />
		<rect x="81.00000" y="16.00000" width="6.00000" height="100.00000" />
		<rect x="93.00000" y="16.00000" width="9.00000" height="100.00000" />
		<rect x="108.00000" y="16.00000" width="3.00000" height="100.00000" />
		<rect x="114.00000" y="16.00000" width="6.00000" height="100.00000" />
		<rect x="126.00000" y="16.00000" width="3.00000" height="100.00000" />
		<rect x="132.00000" y="16.00000" width="9.00000" height="100.00000" />
		<rect x="147.00000" y="16.00000" width="6.00000" height="100.00000" />
		<rect x="159.00000" y="16.00000" width="3.00000" height="100.00000" />
		<rect x="168.00000" y="16.00000" width="9.00000" height="100.00000" />
		<rect x="180.00000" y="16.00000" width="3.00000" height="100.00000" />
		<rect x="186.00000" y="16.00000" width="3.00000" height="100.00000" />
		<rect x="198.00000" y="16.00000" width="6.00000" height="100.00000" />
		<rect x="213.00000" y="16.00000" width="3.00000" height="100.00000" />
		<rect x="225.00000" y="16.00000" width="3.00000" height="100.00000" />
		<rect x="231.00000" y="16.00000" width="6.00000" height="100.00000" />
		<rect x="246.00000" y="16.00000" width="3.00000" height="100.00000" />
		<rect x="258.00000" y="16.00000" width="3.00000" height="100.00000" />
		<rect x="270.00000" y="16.00000" width="6.00000" height="100.00000" />
		<rect x="279.00000" y="16.00000" width="3.00000" height="100.00000" />
		<rect x="285.00000" y="16.00000" width="6.00000" height="100.00000" />
		<rect x="300.00000" y="16.00000" width="3.00000" height="100.00000" />
		<rect x="312.00000" y="16.00000" width="12.00000" height="100.00000" />
		<rect x="333.00000" y="16.00000" width="3.00000" height="100.00000" />
		<rect x="339.00000" y="16.00000" width="3.00000" height="100.00000" />
		<rect x="345.00000" y="16.00000" width="6.00000" height="100.00000" />
		<rect x="360.00000" y="16.00000" width="9.00000" height="100.00000" />
		<rect x="372.00000" y="16.00000" width="3.00000" height="100.00000" />
		<rect x="378.00000" y="16.00000" width="6.00000" height="100.00000" />
	<text x="199.50000" text-anchor="middle" dominant-baseline="hanging" y="1.00000" fill="#000" font-size="15px">1234ABCD</text>
	<text x="199.50000" text-anchor="middle" dominant-baseline="hanging" y="118.00000" fill="#000" font-size="15px">1234ABCD</text>
	</g>
</svg>
