<?xml version="1.0" standalone="no" ?>
<!DOCTYPE svg PUBLIC "-//W3C//DTD SVG 1.1//EN" "http://www.w3.org/Graphics/SVG/1.1/DTD/svg11.dtd">
<svg width="399.00000" height="116.00000" version="1.1" xmlns="http://www.w3.org/2000/svg">
	<g fill="#000" stroke="none">
		<rect x="15.00000" y="16.00000" width="6.00000" height="100.00000" />
		<rect x="24.00000" y="16.00000" width="3.00000" height="100.00000" />
		<rect x="33.00000" y="16.00000" width="3.00000" height="100.00000" />
		<rect x="48.00000" y="16.00000" width="3.00000" height="100.00000" />
		<rect x="57.00000" y="16.00000" width="9.00000" height="100.00000" />
		<rect x="72.00000" y="16.00000" width="6.00000" height="100.00000" />
		<rect x="81.00000" y="16.00000" width="6.00000" height="100.00000" />
		<rect x="93.00000" y="16.00000" width="9.00000" height="100.00000" />
		<rect x="108.00000" y="16.00000" width="3.00000" height="100.00000" />
		<rect x="114.00000" y="16.00000" width="6.00000" height="100.00000" />
		<rect x="126.00000" y="16.00000" width="3.00000" height="100.00000" />
		<rect x="132.00000" y="16.00000" width="9.00000" height="100.00000" />
		<rect x="147.00000" y="16.00000" width="6.00000" height="100.00000" />
		<rect x="159.00000" y="16.00000" width="3.00000" height="100.00000" />
		<rect x="168.00000" y="16.00000" width="9.00000" height="100.00000" />
		<rect x="180.00000" y="16.00000" width="3.00000" height="100.00000" />
		<rect x="189.00000" y="16.00000" width="3.00000" height="100.00000" />
		<rect x="195.00000" y="16.00000" width="6.00000" height="100.00000" />
		<rect x="213.00000" y="16.00000" width="3.00000" height="100.00000" />
		<rect x="222.00000" y="16.00000" width="3.00000" height="100.00000" />
		<rect x="237.00000" y="16.00000" width="6.00000" height="100.00000" />
		<rect x="246.00000" y="16.00000" width="3.00000" height="100.00000" />
		<rect x="261.00000" y="16.00000" width="3.00000" height="100.00000" />
		<rect x="267.00000" y="16.00000" width="6.00000" height="100.00000" />
		<rect x="279.00000" y="16.00000" width="3.00000" height="100.00000" />
		<rect x="294.00000" y="16.00000" width="3.00000" height="100.00000" />
		<rect x="303.00000" y="16.00000" width="6.00000" height="100.00000" />
		<rect x="312.00000" y="16.00000" width="3.00000" height="100.00000" />
		<rect x="321.00000" y="16.00000" width="6.00000" height="100.00000" />
		<rect x="330.00000" y="16.00000" width="3.00000" height="100.00000" />
		<rect x="345.00000" y="16.00000" width="6.00000" height="100.00000" />
		<rect x="360.00000" y="16.00000" width="9.00000" height="100.00000" />
		<rect x="372.00000" y="16.00000" width="3.00000" height="100.00000" />
		<rect x="378.00000" y="16.00000" width="6.00000" height="100.00000" />
	<text x="199.50000" text-anchor="middle" dominant-baseline="hanging" y="1.00000" fill="#000" font-size="15px">1234abcd</text>
	</g>
</svg>
