<?xml version="1.0" standalone="no" ?>
<!DOCTYPE svg PUBLIC "-//W3C//DTD SVG 1.1//EN" "http://www.w3.org/Graphics/SVG/1.1/DTD/svg11.dtd">
<svg width="366" height="100" version="1.1" xmlns="http://www.w3.org/2000/svg">
	<g fill="#000" stroke="none">
		<rect x="15" y="0" width="6" height="100" />
		<rect x="24" y="0" width="3" height="100" />
		<rect x="33" y="0" width="9" height="100" />
		<rect x="48" y="0" width="3" height="100" />
		<rect x="54" y="0" width="6" height="100" />
		<rect x="66" y="0" width="9" height="100" />
		<rect x="81" y="0" width="3" height="100" />
		<rect x="93" y="0" width="3" height="100" />
		<rect x="99" y="0" width="6" height="100" />
		<rect x="114" y="0" width="3" height="100" />
		<rect x="120" y="0" width="12" height="100" />
		<rect x="135" y="0" width="9" height="100" />
		<rect x="147" y="0" width="3" height="100" />
		<rect x="153" y="0" width="3" height="100" />
		<rect x="165" y="0" width="6" height="100" />
		<rect x="180" y="0" width="3" height="100" />
		<rect x="192" y="0" width="3" height="100" />
		<rect x="198" y="0" width="6" height="100" />
		<rect x="213" y="0" width="3" height="100" />
		<rect x="225" y="0" width="3" height="100" />
		<rect x="237" y="0" width="6" height="100" />
		<rect x="246" y="0" width="3" height="100" />
		<rect x="252" y="0" width="6" height="100" />
		<rect x="267" y="0" width="3" height="100" />
		<rect x="279" y="0" width="3" height="100" />
		<rect x="288" y="0" width="6" height="100" />
		<rect x="297" y="0" width="9" height="100" />
		<rect x="312" y="0" width="6" height="100" />
		<rect x="327" y="0" width="9" height="100" />
		<rect x="339" y="0" width="3" height="100" />
		<rect x="345" y="0" width="6" height="100" />
	</g>
</svg>
