<?xml version="1.0" standalone="no" ?>
<!DOCTYPE svg PUBLIC "-//W3C//DTD SVG 1.1//EN" "http://www.w3.org/Graphics/SVG/1.1/DTD/svg11.dtd">
<svg width="338.00000" height="116.00000" version="1.1" xmlns="http://www.w3.org/2000/svg">
	<g fill="#000" stroke="none">
		<rect x="10.00000" y="0.00000" width="2.00000" height="100.00000" />
		<rect x="18.00000" y="0.00000" width="2.00000" height="100.00000" />
		<rect x="22.00000" y="0.00000" width="6.00000" height="100.00000" />
		<rect x="30.00000" y="0.00000" width="6.00000" height="100.00000" />
		<rect x="38.00000" y="0.00000" width="2.00000" height="100.00000" />
		<rect x="42.00000" y="0.00000" width="6.00000" height="100.00000" />
		<rect x="50.00000" y="0.00000" width="2.00000" height="100.00000" />
		<rect x="58.00000" y="0.00000" width="2.00000" height="100.00000" />
		<rect x="62.00000" y="0.00000" width="2.00000" height="100.00000" />
		<rect x="66.00000" y="0.00000" width="6.00000" height="100.00000" />
		<rect x="74.00000" y="0.00000" width="2.00000" height="100.00000" />
		<rect x="78.00000" y="0.00000" width="6.00000" height="100.00000" />
		<rect x="90.00000" y="0.00000" width="2.00000" height="100.00000" />
		<rect x="94.00000" y="0.00000" width="2.00000" height="100.00000" />
		<rect x="98.00000" y="0.00000" width="6.00000" height="100.00000" />
		<rect x="106.00000" y="0.00000" width="6.00000" height="100.00000" />
		<rect x="114.00000" y="0.00000" width="6.00000" height="100.00000" />
		<rect x="126.00000" y="0.00000" width="2.00000" height="100.00000" />
		<rect x="130.00000" y="0.00000" width="2.00000" height="100.00000" />
		<rect x="134.00000" y="0.00000" width="2.00000" height="100.00000" />
		<rect x="138.00000" y="0.00000" width="2.00000" height="100.00000" />
		<rect x="142.00000" y="0.00000" width="2.00000" height="100.00000" />
		<rect x="150.00000" y="0.00000" width="6.00000" height="100.00000" />
		<rect x="158.00000" y="0.00000" width="2.00000" height="100.00000" />
		<rect x="162.00000" y="0.00000" width="6.00000" height="100.00000" />
		<rect x="170.00000" y="0.00000" width="6.00000" height="100.00000" />
		<rect x="178.00000" y="0.00000" width="2.00000" height="100.00000" />
		<rect x="182.00000" y="0.00000" width="2.00000" height="100.00000" />
		<rect x="190.00000" y="0.00000" width="2.00000" height="100.00000" />
		<rect x="194.00000" y="0.00000" width="6.00000" height="100.00000" />
		<rect x="202.00000" y="0.00000" width="2.00000" height="100.00000" />
		<rect x="206.00000" y="0.00000" width="6.00000" height="100.00000" />
		<rect x="214.00000" y="0.00000" width="2.00000" height="100.00000" />
		<rect x="222.00000" y="0.00000" width="2.00000" height="100.00000" />
		<rect x="226.00000" y="0.00000" width="6.00000" height="100.00000" />
		<rect x="234.00000" y="0.00000" width="6.00000" height="100.00000" />
		<rect x="242.00000" y="0.00000" width="6.00000" height="100.00000" />
		<rect x="250.00000" y="0.00000" width="2.00000" height="100.00000" />
		<rect x="258.00000" y="0.00000" width="2.00000" height="100.00000" />
		<rect x="262.00000" y="0.00000" width="2.00000" height="100.00000" />
		<rect x="266.00000" y="0.00000" width="2.00000" height="100.00000" />
		<rect x="270.00000" y="0.00000" width="2.00000" height="100.00000" />
		<rect x="274.00000" y="0.00000" width="6.00000" height="100.00000" />
		<rect x="286.00000" y="0.00000" width="2.00000" height="100.00000" />
		<rect x="290.00000" y="0.00000" width="6.00000" height="100.00000" />
		<rect x="298.00000" y="0.00000" width="2.00000" height="100.00000" />
		<rect x="306.00000" y="0.00000" width="2.00000" height="100.00000" />
		<rect x="310.00000" y="0.00000" width="6.00000" height="100.00000" />
		<rect x="318.00000" y="0.00000" width="6.00000" height="100.00000" />
		<rect x="326.00000" y="0.00000" width="2.00000" height="100.00000" />
	<text x="169.00000" text-anchor="middle" dominant-baseline="hanging" y="102.00000" fill="#000" font-size="15px">1234ABCD</text>
	</g>
</svg>
