<?xml version="1.0" standalone="no" ?>
<!DOCTYPE svg PUBLIC "-//W3C//DTD SVG 1.1//EN" "http://www.w3.org/Graphics/SVG/1.1/DTD/svg11.dtd">
<svg width="338" height="100" version="1.1" xmlns="http://www.w3.org/2000/svg">
	<g fill="#000" stroke="none">
		<rect x="10" y="0" width="2" height="86" />
		<rect x="18" y="0" width="2" height="86" />
		<rect x="22" y="0" width="6" height="86" />
		<rect x="30" y="0" width="6" height="86" />
		<rect x="38" y="0" width="2" height="86" />
		<rect x="42" y="0" width="6" height="86" />
		<rect x="50" y="0" width="2" height="86" />
		<rect x="58" y="0" width="2" height="86" />
		<rect x="62" y="0" width="2" height="86" />
		<rect x="66" y="0" width="6" height="86" />
		<rect x="74" y="0" width="2" height="86" />
		<rect x="78" y="0" width="6" height="86" />
		<rect x="90" y="0" width="2" height="86" />
		<rect x="94" y="0" width="2" height="86" />
		<rect x="98" y="0" width="6" height="86" />
		<rect x="106" y="0" width="6" height="86" />
		<rect x="114" y="0" width="6" height="86" />
		<rect x="126" y="0" width="2" height="86" />
		<rect x="130" y="0" width="2" height="86" />
		<rect x="134" y="0" width="2" height="86" />
		<rect x="138" y="0" width="2" height="86" />
		<rect x="142" y="0" width="2" height="86" />
		<rect x="150" y="0" width="6" height="86" />
		<rect x="158" y="0" width="2" height="86" />
		<rect x="162" y="0" width="6" height="86" />
		<rect x="170" y="0" width="6" height="86" />
		<rect x="178" y="0" width="2" height="86" />
		<rect x="182" y="0" width="2" height="86" />
		<rect x="190" y="0" width="2" height="86" />
		<rect x="194" y="0" width="6" height="86" />
		<rect x="202" y="0" width="2" height="86" />
		<rect x="206" y="0" width="6" height="86" />
		<rect x="214" y="0" width="2" height="86" />
		<rect x="222" y="0" width="2" height="86" />
		<rect x="226" y="0" width="6" height="86" />
		<rect x="234" y="0" width="6" height="86" />
		<rect x="242" y="0" width="6" height="86" />
		<rect x="250" y="0" width="2" height="86" />
		<rect x="258" y="0" width="2" height="86" />
		<rect x="262" y="0" width="2" height="86" />
		<rect x="266" y="0" width="2" height="86" />
		<rect x="270" y="0" width="2" height="86" />
		<rect x="274" y="0" width="6" height="86" />
		<rect x="286" y="0" width="2" height="86" />
		<rect x="290" y="0" width="6" height="86" />
		<rect x="298" y="0" width="2" height="86" />
		<rect x="306" y="0" width="2" height="86" />
		<rect x="310" y="0" width="6" height="86" />
		<rect x="318" y="0" width="6" height="86" />
		<rect x="326" y="0" width="2" height="86" />
	 <text x="169" text-anchor="middle" dominant-baseline="hanging" y="86" fill="#000" font-size="12px">1234ABCD</text>
	</g>
</svg>
