<?xml version="1.0" standalone="no" ?>
<!DOCTYPE svg PUBLIC "-//W3C//DTD SVG 1.1//EN" "http://www.w3.org/Graphics/SVG/1.1/DTD/svg11.dtd">
<svg width="238" height="114" version="1.1" xmlns="http://www.w3.org/2000/svg">
	<g fill="#000" stroke="none">
		<rect x="10" y="14" width="2" height="100" />
		<rect x="14" y="14" width="2" height="100" />
		<rect x="18" y="14" width="8" height="100" />
		<rect x="28" y="14" width="2" height="100" />
		<rect x="32" y="14" width="2" height="100" />
		<rect x="38" y="14" width="2" height="100" />
		<rect x="46" y="14" width="2" height="100" />
		<rect x="50" y="14" width="2" height="100" />
		<rect x="58" y="14" width="2" height="100" />
		<rect x="64" y="14" width="2" height="100" />
		<rect x="68" y="14" width="2" height="100" />
		<rect x="78" y="14" width="2" height="100" />
		<rect x="82" y="14" width="2" height="100" />
		<rect x="88" y="14" width="2" height="100" />
		<rect x="92" y="14" width="2" height="100" />
		<rect x="100" y="14" width="4" height="100" />
		<rect x="106" y="14" width="2" height="100" />
		<rect x="110" y="14" width="2" height="100" />
		<rect x="118" y="14" width="4" height="100" />
		<rect x="124" y="14" width="2" height="100" />
		<rect x="130" y="14" width="2" height="100" />
		<rect x="136" y="14" width="4" height="100" />
		<rect x="142" y="14" width="2" height="100" />
		<rect x="150" y="14" width="2" height="100" />
		<rect x="154" y="14" width="4" height="100" />
		<rect x="162" y="14" width="2" height="100" />
		<rect x="166" y="14" width="2" height="100" />
		<rect x="172" y="14" width="4" height="100" />
		<rect x="178" y="14" width="2" height="100" />
		<rect x="184" y="14" width="4" height="100" />
		<rect x="190" y="14" width="2" height="100" />
		<rect x="198" y="14" width="4" height="100" />
		<rect x="204" y="14" width="2" height="100" />
		<rect x="208" y="14" width="2" height="100" />
		<rect x="212" y="14" width="2" height="100" />
		<rect x="216" y="14" width="8" height="100" />
		<rect x="226" y="14" width="2" height="100" />
	<text x="119" text-anchor="middle" dominant-baseline="hanging" y="2" fill="#000" font-size="12px">1234ABCD</text>
	</g>
</svg>
