<?xml version="1.0" standalone="no" ?>
<!DOCTYPE svg PUBLIC "-//W3C//DTD SVG 1.1//EN" "http://www.w3.org/Graphics/SVG/1.1/DTD/svg11.dtd">
<svg width="218.00000" height="116.00000" version="1.1" xmlns="http://www.w3.org/2000/svg">
	<g fill="#000" stroke="none">
		<rect x="10.00000" y="0.00000" width="2.00000" height="100.00000" />
		<rect x="14.00000" y="0.00000" width="6.00000" height="100.00000" />
		<rect x="26.00000" y="0.00000" width="2.00000" height="100.00000" />
		<rect x="34.00000" y="0.00000" width="2.00000" height="100.00000" />
		<rect x="38.00000" y="0.00000" width="2.00000" height="100.00000" />
		<rect x="42.00000" y="0.00000" width="2.00000" height="100.00000" />
		<rect x="46.00000" y="0.00000" width="6.00000" height="100.00000" />
		<rect x="58.00000" y="0.00000" width="2.00000" height="100.00000" />
		<rect x="62.00000" y="0.00000" width="2.00000" height="100.00000" />
		<rect x="66.00000" y="0.00000" width="2.00000" height="100.00000" />
		<rect x="74.00000" y="0.00000" width="2.00000" height="100.00000" />
		<rect x="78.00000" y="0.00000" width="6.00000" height="100.00000" />
		<rect x="86.00000" y="0.00000" width="6.00000" height="100.00000" />
		<rect x="98.00000" y="0.00000" width="2.00000" height="100.00000" />
		<rect x="102.00000" y="0.00000" width="2.00000" height="100.00000" />
		<rect x="106.00000" y="0.00000" width="2.00000" height="100.00000" />
		<rect x="110.00000" y="0.00000" width="2.00000" height="100.00000" />
		<rect x="114.00000" y="0.00000" width="6.00000" height="100.00000" />
		<rect x="122.00000" y="0.00000" width="2.00000" height="100.00000" />
		<rect x="130.00000" y="0.00000" width="2.00000" height="100.00000" />
		<rect x="134.00000" y="0.00000" width="6.00000" height="100.00000" />
		<rect x="142.00000" y="0.00000" width="2.00000" height="100.00000" />
		<rect x="146.00000" y="0.00000" width="2.00000" height="100.00000" />
		<rect x="154.00000" y="0.00000" width="2.00000" height="100.00000" />
		<rect x="158.00000" y="0.00000" width="2.00000" height="100.00000" />
		<rect x="166.00000" y="0.00000" width="2.00000" height="100.00000" />
		<rect x="170.00000" y="0.00000" width="2.00000" height="100.00000" />
		<rect x="174.00000" y="0.00000" width="6.00000" height="100.00000" />
		<rect x="182.00000" y="0.00000" width="2.00000" height="100.00000" />
		<rect x="186.00000" y="0.00000" width="2.00000" height="100.00000" />
		<rect x="194.00000" y="0.00000" width="2.00000" height="100.00000" />
		<rect x="202.00000" y="0.00000" width="6.00000" height="100.00000" />
	<text x="109.00000" text-anchor="middle" dominant-baseline="hanging" y="102.00000" fill="#000" font-size="15px">a123456c</text>
	</g>
</svg>
