<?xml version="1.0" standalone="no" ?>
<!DOCTYPE svg PUBLIC "-//W3C//DTD SVG 1.1//EN" "http://www.w3.org/Graphics/SVG/1.1/DTD/svg11.dtd">
<svg width="218" height="114" version="1.1" xmlns="http://www.w3.org/2000/svg">
	<g fill="#000" stroke="none">
		<rect x="10" y="0" width="2" height="100" />
		<rect x="14" y="0" width="6" height="100" />
		<rect x="26" y="0" width="2" height="100" />
		<rect x="34" y="0" width="2" height="100" />
		<rect x="38" y="0" width="2" height="100" />
		<rect x="42" y="0" width="2" height="100" />
		<rect x="46" y="0" width="6" height="100" />
		<rect x="58" y="0" width="2" height="100" />
		<rect x="62" y="0" width="2" height="100" />
		<rect x="66" y="0" width="2" height="100" />
		<rect x="74" y="0" width="2" height="100" />
		<rect x="78" y="0" width="6" height="100" />
		<rect x="86" y="0" width="6" height="100" />
		<rect x="98" y="0" width="2" height="100" />
		<rect x="102" y="0" width="2" height="100" />
		<rect x="106" y="0" width="2" height="100" />
		<rect x="110" y="0" width="2" height="100" />
		<rect x="114" y="0" width="6" height="100" />
		<rect x="122" y="0" width="2" height="100" />
		<rect x="130" y="0" width="2" height="100" />
		<rect x="134" y="0" width="6" height="100" />
		<rect x="142" y="0" width="2" height="100" />
		<rect x="146" y="0" width="2" height="100" />
		<rect x="154" y="0" width="2" height="100" />
		<rect x="158" y="0" width="2" height="100" />
		<rect x="166" y="0" width="2" height="100" />
		<rect x="170" y="0" width="2" height="100" />
		<rect x="174" y="0" width="6" height="100" />
		<rect x="182" y="0" width="2" height="100" />
		<rect x="186" y="0" width="2" height="100" />
		<rect x="194" y="0" width="6" height="100" />
		<rect x="206" y="0" width="2" height="100" />
	<text x="109" text-anchor="middle" dominant-baseline="hanging" y="100" fill="#000" font-size="12px">123456</text>
	</g>
</svg>
