<?xml version="1.0" standalone="no" ?>
<!DOCTYPE svg PUBLIC "-//W3C//DTD SVG 1.1//EN" "http://www.w3.org/Graphics/SVG/1.1/DTD/svg11.dtd">
<svg width="154.00000" height="116.00000" version="1.1" xmlns="http://www.w3.org/2000/svg">
	<g fill="#000" stroke="none">
		<rect x="10.00000" y="0.00000" width="2.00000" height="100.00000" />
		<rect x="14.00000" y="0.00000" width="2.00000" height="100.00000" />
		<rect x="20.00000" y="0.00000" width="4.00000" height="100.00000" />
		<rect x="28.00000" y="0.00000" width="2.00000" height="100.00000" />
		<rect x="34.00000" y="0.00000" width="2.00000" height="100.00000" />
		<rect x="40.00000" y="0.00000" width="4.00000" height="100.00000" />
		<rect x="46.00000" y="0.00000" width="8.00000" height="100.00000" />
		<rect x="56.00000" y="0.00000" width="2.00000" height="100.00000" />
		<rect x="60.00000" y="0.00000" width="2.00000" height="100.00000" />
		<rect x="68.00000" y="0.00000" width="4.00000" height="100.00000" />
		<rect x="74.00000" y="0.00000" width="2.00000" height="100.00000" />
		<rect x="78.00000" y="0.00000" width="2.00000" height="100.00000" />
		<rect x="82.00000" y="0.00000" width="2.00000" height="100.00000" />
		<rect x="88.00000" y="0.00000" width="6.00000" height="100.00000" />
		<rect x="96.00000" y="0.00000" width="2.00000" height="100.00000" />
		<rect x="100.00000" y="0.00000" width="2.00000" height="100.00000" />
		<rect x="110.00000" y="0.00000" width="2.00000" height="100.00000" />
		<rect x="118.00000" y="0.00000" width="2.00000" height="100.00000" />
		<rect x="124.00000" y="0.00000" width="6.00000" height="100.00000" />
		<rect x="134.00000" y="0.00000" width="2.00000" height="100.00000" />
		<rect x="138.00000" y="0.00000" width="2.00000" height="100.00000" />
		<rect x="142.00000" y="0.00000" width="2.00000" height="100.00000" />
	<text x="77.00000" text-anchor="middle" dominant-baseline="hanging" y="102.00000" fill="#000" font-size="15px">1234 5670</text>
	</g>
</svg>
