<?xml version="1.0" standalone="no" ?>
<!DOCTYPE svg PUBLIC "-//W3C//DTD SVG 1.1//EN" "http://www.w3.org/Graphics/SVG/1.1/DTD/svg11.dtd">
<svg width="154" height="114" version="1.1" xmlns="http://www.w3.org/2000/svg">
	<g fill="#000" stroke="none">
		<rect x="10" y="0" width="2" height="100" />
		<rect x="14" y="0" width="2" height="100" />
		<rect x="20" y="0" width="4" height="100" />
		<rect x="28" y="0" width="2" height="100" />
		<rect x="34" y="0" width="2" height="100" />
		<rect x="40" y="0" width="4" height="100" />
		<rect x="46" y="0" width="8" height="100" />
		<rect x="56" y="0" width="2" height="100" />
		<rect x="60" y="0" width="2" height="100" />
		<rect x="68" y="0" width="4" height="100" />
		<rect x="74" y="0" width="2" height="100" />
		<rect x="78" y="0" width="2" height="100" />
		<rect x="82" y="0" width="2" height="100" />
		<rect x="88" y="0" width="6" height="100" />
		<rect x="96" y="0" width="2" height="100" />
		<rect x="100" y="0" width="2" height="100" />
		<rect x="110" y="0" width="2" height="100" />
		<rect x="118" y="0" width="2" height="100" />
		<rect x="124" y="0" width="6" height="100" />
		<rect x="134" y="0" width="2" height="100" />
		<rect x="138" y="0" width="2" height="100" />
		<rect x="142" y="0" width="2" height="100" />
	<text x="77" text-anchor="middle" dominant-baseline="hanging" y="100" fill="#000" font-size="12px">12345670</text>
	</g>
</svg>
