<?xml version="1.0" standalone="no" ?>
<!DOCTYPE svg PUBLIC "-//W3C//DTD SVG 1.1//EN" "http://www.w3.org/Graphics/SVG/1.1/DTD/svg11.dtd">
<svg width="120" height="114" version="1.1" xmlns="http://www.w3.org/2000/svg">
	<g fill="#000" stroke="none">
		<rect x="10" y="0" width="2" height="100" />
		<rect x="14" y="0" width="2" height="100" />
		<rect x="18" y="0" width="4" height="100" />
		<rect x="24" y="0" width="2" height="100" />
		<rect x="30" y="0" width="2" height="100" />
		<rect x="34" y="0" width="2" height="100" />
		<rect x="38" y="0" width="4" height="100" />
		<rect x="46" y="0" width="4" height="100" />
		<rect x="52" y="0" width="4" height="100" />
		<rect x="58" y="0" width="2" height="100" />
		<rect x="64" y="0" width="2" height="100" />
		<rect x="68" y="0" width="2" height="100" />
		<rect x="74" y="0" width="4" height="100" />
		<rect x="80" y="0" width="2" height="100" />
		<rect x="86" y="0" width="4" height="100" />
		<rect x="94" y="0" width="2" height="100" />
		<rect x="98" y="0" width="2" height="100" />
		<rect x="102" y="0" width="4" height="100" />
		<rect x="108" y="0" width="2" height="100" />
	<text x="60" text-anchor="middle" dominant-baseline="hanging" y="100" fill="#000" font-size="12px">123456</text>
	</g>
</svg>
