<?xml version="1.0" standalone="no" ?>
<!DOCTYPE svg PUBLIC "-//W3C//DTD SVG 1.1//EN" "http://www.w3.org/Graphics/SVG/1.1/DTD/svg11.dtd">
<svg width="210.00000" height="116.00000" version="1.1" xmlns="http://www.w3.org/2000/svg">
	<g fill="#000" stroke="none">
		<rect x="10.00000" y="0.00000" width="2.00000" height="100.00000" />
		<rect x="14.00000" y="0.00000" width="2.00000" height="100.00000" />
		<rect x="22.00000" y="0.00000" width="4.00000" height="100.00000" />
		<rect x="28.00000" y="0.00000" width="2.00000" height="100.00000" />
		<rect x="32.00000" y="0.00000" width="2.00000" height="100.00000" />
		<rect x="40.00000" y="0.00000" width="4.00000" height="100.00000" />
		<rect x="48.00000" y="0.00000" width="2.00000" height="100.00000" />
		<rect x="54.00000" y="0.00000" width="4.00000" height="100.00000" />
		<rect x="62.00000" y="0.00000" width="4.00000" height="100.00000" />
		<rect x="70.00000" y="0.00000" width="2.00000" height="100.00000" />
		<rect x="78.00000" y="0.00000" width="4.00000" height="100.00000" />
		<rect x="84.00000" y="0.00000" width="2.00000" height="100.00000" />
		<rect x="92.00000" y="0.00000" width="4.00000" height="100.00000" />
		<rect x="98.00000" y="0.00000" width="2.00000" height="100.00000" />
		<rect x="102.00000" y="0.00000" width="2.00000" height="100.00000" />
		<rect x="106.00000" y="0.00000" width="2.00000" height="100.00000" />
		<rect x="110.00000" y="0.00000" width="6.00000" height="100.00000" />
		<rect x="120.00000" y="0.00000" width="2.00000" height="100.00000" />
		<rect x="124.00000" y="0.00000" width="6.00000" height="100.00000" />
		<rect x="134.00000" y="0.00000" width="2.00000" height="100.00000" />
		<rect x="138.00000" y="0.00000" width="2.00000" height="100.00000" />
		<rect x="144.00000" y="0.00000" width="6.00000" height="100.00000" />
		<rect x="152.00000" y="0.00000" width="4.00000" height="100.00000" />
		<rect x="158.00000" y="0.00000" width="4.00000" height="100.00000" />
		<rect x="166.00000" y="0.00000" width="2.00000" height="100.00000" />
		<rect x="170.00000" y="0.00000" width="2.00000" height="100.00000" />
		<rect x="180.00000" y="0.00000" width="2.00000" height="100.00000" />
		<rect x="184.00000" y="0.00000" width="6.00000" height="100.00000" />
		<rect x="194.00000" y="0.00000" width="2.00000" height="100.00000" />
		<rect x="198.00000" y="0.00000" width="2.00000" height="100.00000" />
	<text x="105.00000" text-anchor="middle" dominant-baseline="hanging" y="102.00000" fill="#000" font-size="15px">042100005264</text>
	</g>
</svg>
