<?xml version="1.0" standalone="no" ?>
<!DOCTYPE svg PUBLIC "-//W3C//DTD SVG 1.1//EN" "http://www.w3.org/Graphics/SVG/1.1/DTD/svg11.dtd">
<svg width="122" height="100" version="1.1" xmlns="http://www.w3.org/2000/svg">
	<g fill="#000" stroke="none">
		<rect x="10" y="0" width="2" height="86" />
		<rect x="14" y="0" width="2" height="86" />
		<rect x="20" y="0" width="6" height="86" />
		<rect x="28" y="0" width="2" height="86" />
		<rect x="34" y="0" width="2" height="86" />
		<rect x="40" y="0" width="4" height="86" />
		<rect x="46" y="0" width="6" height="86" />
		<rect x="56" y="0" width="2" height="86" />
		<rect x="62" y="0" width="4" height="86" />
		<rect x="68" y="0" width="4" height="86" />
		<rect x="74" y="0" width="2" height="86" />
		<rect x="78" y="0" width="8" height="86" />
		<rect x="90" y="0" width="4" height="86" />
		<rect x="98" y="0" width="2" height="86" />
		<rect x="102" y="0" width="2" height="86" />
		<rect x="106" y="0" width="2" height="86" />
		<rect x="110" y="0" width="2" height="86" />
	 <text x="61" text-anchor="middle" dominant-baseline="hanging" y="86" fill="#000" font-size="12px">425261</text>
	</g>
</svg>
